<?xml version="1.0" encoding="utf-8"?>
<!-- Generator: Adobe Illustrator 25.0.0, SVG Export Plug-In . SVG Version: 6.00 Build 0)  -->
<svg version="1.1" id="Layer_1" xmlns="http://www.w3.org/2000/svg" xmlns:xlink="http://www.w3.org/1999/xlink" x="0px" y="0px"
	 viewBox="0 0 1920 1080" style="enable-background:new 0 0 1920 1080;" xml:space="preserve">
<path d="M727.7,640c-11.7-11.4-16.7,3-23,8c-66.1,51.4-149.2,34.1-183.3-39c-16.7-36-20.4-74.4-20.4-113.5
	c0-15.4,8.8-14.1,18.8-14.1c31.1,0.1,62.2,0,93.3,0c30.1,0,68.6-1.2,98.6,0.4c23,1.2,20.4-8.5,18.7-29.3
	c-2.7-31.8-12.7-60.6-31.5-86c-66.1-89.4-214.4-87.5-290.6,2.7c-63.2,74.8-78.5,244.7,35.1,332.1c89.7,69,216.8,53,278.3-36.7
	C726.4,657.9,738.5,650.4,727.7,640z M507.6,401c2.7-15.1,6.4-30.2,11.4-44.7c5.8-17,14.8-32.3,35.9-32.8c21.6-0.5,30.7,15,36.3,32
	c12.3,37.1,13.6,59.8,17.9,94.7c2.6,20.5,6.7,18.5-16,18.2c-31.8-0.4-63.5-0.2-94.8-0.2C501.6,444,503.8,422.4,507.6,401z"/>
<path d="M811.1,476c0-43.6,0.5-87.2,0.2-130.9c-0.2-29.5,1.9-25.4-22.7-25.8c-5.7-0.1-14.7,2.5-14.6-5.8
	c0.2-14.3,4.3-10.2,11.3-12.9c52.1-19.8,94-58.1,134.6-96c4.7-4.4,9.9-13.1,17.2-8.1c11.8,8.1,9.2,11.3,9.1,19.2
	c0,23.3-1.5,46.6-0.2,69.8c0.9,15.7,3.5,13.7,16.4,14.4c23.5,1.3,48.6,0.7,72.9,1.3c8,0.2,28.8-4.1,21.8,10.5
	c-5.4,11.3-13.1,10.2-21.8,10.1c-23.3-0.3-45.2,0-68.9-0.9c-23.6-0.9-20.7,2.7-20.5,18.7c1,83.4,0.9,166.7,1.6,250.1
	c0.1,8.6,1.5,15.9,3.5,26.2c9.4,47.2,54.5,71.4,90,35.6c6.7-6.8,10.7-17.6,20.9-6.9c8.6,9-0.9,16.5-5.5,22.8
	C1023,712.6,968.5,740,913,729.6c-55.8-10.5-87.7-41-98.1-96.8c-3.5-18.9-3.3-38.6-3.7-57.9C810.7,542,811.1,509,811.1,476z"/>
<path d="M1743.1,568.6c25.1-59.4,54.1-111.1,68.7-168.6c9-35.7,0.4-62-32.4-78.6c-9.8-5-7.8-7-10.1-11.9c-3.4-7.2,8.7-5.9,13.9-5.9
	c40.9-0.2,81.7-0.2,122.6,0c5.2,0,16.4-1.3,13.8,6.7c-2.3,7.3-4,7.9-10.3,10.3c-37.7,14.2-54.8,47.1-71.2,80.3
	c-46.1,93.8-86.9,190-128,286c-21.8,50.8-45.8,100.5-79.5,144.8c-29.4,38.7-63.5,70.9-115.8,75.5c-46.6,4.1-77.2-23.1-74.6-66.9
	c1.4-23.5,12.4-41.1,33.7-50.2c19.9-8.5,39.1-5.7,57.5,7.9c50.9,37.5,75.5,33,112-18.9c1.1-1.6,2-3.3,3.2-4.8
	c25-30.4,27.8-58.6,7.9-96.4c-50.9-96.7-95.6-196.6-143.4-295c-12.6-25.9-24.4-53.8-56.7-62.2c-7.9-2.1-6.4-6.4-7.6-10.5
	c-2.3-8,10.5-6.4,16.2-6.4c66.2-0.3,132.3-0.2,198.5-0.2c11.7,0,23.4-0.2,35,0.1c5.2,0.2,14-2.2,12.6,7.1c-1.5,9.8-3.8,8-8.7,9.8
	c-40,14.4-48.3,39.2-30.7,81.1C1692.7,456,1717.2,509.7,1743.1,568.6z"/>
<path d="M289.7,380.7c-36-65.2-111.8-94.5-182.7-73.1C39.9,327.9-6.5,400,0.7,473c10.2,102.9,78.1,140.2,212,134.7
	c6.2,41.1-93.9,212.2-181,259.1C5,881.2-3.3,885.3,9.1,897.6c15.6,15.6,26.8,3.9,39.1-2.1c110-64.5,206.3-154.1,249.7-279.8
	C324.7,538.2,332,457.2,289.7,380.7z M113.9,541.1c-19.1,12.8-44.3,11.1-61-5C33.4,517.2,28.1,492.5,29,467
	c1.4-41.3,18.2-76.5,48.6-104.8c3.1-2.9,6.2-9.7,11.4-5.1c4.9,4.4-1.9,7.5-4.1,10.6c-19.5,27-27.6,57.2-26.6,92
	c39.3-13.9,59.7-7,72.1,22.6C139.1,503.3,132,529,113.9,541.1z"/>
<path d="M1144.5,476.1c0-43.6,0.4-87.2,0.2-130.9c-0.2-29.5,1.9-25.4-22.7-25.8c-5.7-0.1-14.7,2.5-14.6-5.8
	c0.2-14.3,4.3-10.2,11.3-12.9c52.1-19.8,94-58.1,134.6-96c4.7-4.4,9.9-13.1,17.2-8.1c11.8,8.1,9.2,11.3,9.1,19.2
	c0,23.3-1.5,46.6-0.2,69.8c0.9,15.7,3.5,13.7,16.4,14.4c23.5,1.3,48.6,0.7,72.9,1.3c8,0.2,28.8-4.1,21.8,10.5
	c-5.4,11.3-13.1,10.2-21.8,10.1c-23.3-0.3-45.2,0-68.9-0.9c-23.6-0.9-20.7,2.7-20.4,18.7c1,83.4,0.9,166.7,1.6,250.1
	c0.1,8.6,1.4,15.9,3.5,26.2c9.4,47.2,54.4,71.4,89.9,35.6c6.7-6.8,10.7-17.6,20.9-6.9c8.6,9-0.9,16.5-5.5,22.8
	c-33.4,45.2-87.9,72.6-143.4,62.2c-55.8-10.5-87.7-41-98.1-96.8c-3.5-18.9-3.3-38.6-3.7-57.9C1144.1,542,1144.5,509,1144.5,476.1z"
	/>
</svg>
