<?xml version="1.0" encoding="utf-8"?>
<!-- Generator: Adobe Illustrator 25.0.0, SVG Export Plug-In . SVG Version: 6.00 Build 0)  -->
<svg version="1.1" id="Layer_1" xmlns="http://www.w3.org/2000/svg" xmlns:xlink="http://www.w3.org/1999/xlink" x="0px" y="0px"
	 viewBox="0 0 1920 1080" style="enable-background:new 0 0 1920 1080;" xml:space="preserve">
<style type="text/css">
	.st0{fill:#FFFFFF;stroke:#000000;stroke-miterlimit:10;}
	.st1{fill:#FDFDFD;stroke:#000000;stroke-miterlimit:10;}
</style>
<path class="st0" d="M613.13,484.28c-31.11,0-62.22,0.08-93.33-0.04c-9.99-0.04-18.85-1.29-18.82,14.09
	c0.06,39.14,3.68,77.53,20.39,113.39c34.09,73.14,117.24,90.45,183.33,39.03c6.37-4.95,11.3-19.41,23.04-7.97
	c10.73,10.46-1.31,17.91-5.99,24.74c-61.45,89.63-188.57,105.63-278.3,36.65c-113.67-87.4-98.33-257.35-35.14-332.13
	c76.22-90.2,224.45-92.08,290.59-2.7c18.8,25.4,28.82,54.25,31.5,86.01c1.76,20.83,4.32,30.53-18.65,29.32
	C681.7,483.08,643.27,484.28,613.13,484.28z"/>
<path class="st1" d="M498.33,468.2c3.25-24.16,5.51-45.83,9.28-67.23c2.66-15.12,6.44-30.2,11.44-44.71
	c5.84-16.96,14.81-32.26,35.93-32.77c21.62-0.53,30.66,15.01,36.27,31.99c12.26,37.07,13.56,59.78,17.92,94.71
	c2.56,20.51,6.68,18.45-16,18.2C561.42,468.04,529.67,468.2,498.33,468.2z"/>
<path class="st0" d="M811.13,478.85c0-43.62,0.45-87.24,0.23-130.86c-0.15-29.48,1.91-25.37-22.7-25.78
	c-5.69-0.1-14.72,2.47-14.63-5.84c0.16-14.31,4.28-10.2,11.33-12.88c52.1-19.78,93.97-58.07,134.6-96c4.74-4.42,9.9-13.05,17.18-8.1
	c11.85,8.07,9.16,11.32,9.14,19.22c-0.04,23.26-1.54,46.57-0.24,69.79c0.88,15.72,3.54,13.69,16.44,14.41
	c23.52,1.31,48.59,0.68,72.87,1.31c8,0.21,28.79-4.11,21.79,10.45c-5.42,11.27-13.08,10.24-21.79,10.11
	c-23.33-0.34-45.24,0-68.93-0.89c-23.61-0.89-20.65,2.73-20.45,18.68c1.01,83.35,0.91,166.71,1.56,250.07
	c0.07,8.59,1.45,15.93,3.51,26.21c9.44,47.2,54.45,71.41,89.95,35.56c6.7-6.77,10.73-17.64,20.94-6.86
	c8.57,9.05-0.87,16.54-5.5,22.79c-33.41,45.16-87.94,72.57-143.43,62.18c-55.79-10.45-87.66-40.96-98.07-96.78
	c-3.52-18.89-3.34-38.58-3.66-57.92C810.73,544.78,811.13,511.81,811.13,478.85z"/>
<path class="st0" d="M1743.12,568.61c25.06-59.44,54.09-111.12,68.65-168.65c9.03-35.68,0.4-61.95-32.45-78.55
	c-9.81-4.96-7.76-7.01-10.06-11.91c-3.4-7.24,8.73-5.88,13.92-5.91c40.87-0.21,81.73-0.21,122.6,0c5.16,0.03,16.4-1.33,13.85,6.7
	c-2.33,7.32-3.97,7.9-10.28,10.28c-37.66,14.2-54.85,47.1-71.18,80.33c-46.1,93.81-86.86,190.03-128.04,286.04
	c-21.8,50.82-45.84,100.52-79.46,144.79c-29.41,38.73-63.49,70.91-115.79,75.47c-46.63,4.06-77.22-23.14-74.61-66.93
	c1.4-23.51,12.39-41.13,33.74-50.21c19.93-8.47,39.05-5.66,57.46,7.93c50.86,37.55,75.54,32.95,111.98-18.94
	c1.11-1.59,2-3.35,3.23-4.84c24.96-30.36,27.79-58.62,7.9-96.41c-50.9-96.69-95.55-196.64-143.38-294.95
	c-12.61-25.93-24.41-53.77-56.66-62.25c-7.89-2.08-6.39-6.35-7.6-10.49c-2.34-8.03,10.47-6.41,16.23-6.43
	c66.16-0.31,132.33-0.2,198.49-0.2c11.68,0,23.36-0.24,35.03,0.12c5.15,0.16,13.99-2.19,12.59,7.14c-1.47,9.84-3.76,8-8.74,9.79
	c-40.03,14.44-48.3,39.23-30.7,81.07C1692.72,455.96,1717.17,509.67,1743.12,568.61z"/>
<path class="st0" d="M212.78,610.53C78.85,616.02,10.89,578.71,0.74,475.83c-7.2-72.95,39.16-145.11,106.23-165.34
	c70.93-21.4,146.68,7.88,182.71,73.05c42.3,76.49,35.05,157.53,8.26,235.12C254.54,744.37,158.26,833.9,48.27,898.43
	c-12.31,5.99-23.45,17.68-39.07,2.06c-12.34-12.34-4.11-16.45,22.62-30.85C118.92,822.74,218.95,651.66,212.78,610.53z"/>
<path class="st0" d="M58.21,462.46c39.29-13.87,59.72-6.99,72.13,22.64c8.8,21.01,1.62,46.68-16.45,58.82
	c-19.12,12.84-44.29,11.06-60.95-5.01c-19.55-18.86-24.8-43.59-23.93-69.09c1.41-41.31,18.2-76.46,48.6-104.84
	c3.11-2.9,6.25-9.68,11.36-5.1c4.87,4.37-1.85,7.46-4.12,10.59C65.32,397.51,57.24,427.68,58.21,462.46z"/>
<path class="st0" d="M1144.47,478.89c0-43.62,0.45-87.24,0.23-130.86c-0.15-29.48,1.91-25.37-22.7-25.78
	c-5.69-0.1-14.72,2.47-14.63-5.84c0.16-14.31,4.28-10.2,11.33-12.88c52.1-19.78,93.97-58.07,134.6-96c4.74-4.42,9.9-13.05,17.18-8.1
	c11.85,8.07,9.16,11.32,9.14,19.22c-0.04,23.26-1.54,46.57-0.24,69.79c0.89,15.72,3.54,13.69,16.44,14.41
	c23.52,1.31,48.59,0.68,72.87,1.31c8,0.21,28.79-4.11,21.79,10.45c-5.42,11.27-13.08,10.24-21.79,10.11
	c-23.33-0.34-45.24,0-68.93-0.89c-23.61-0.89-20.65,2.73-20.45,18.68c1.01,83.35,0.91,166.71,1.56,250.07
	c0.07,8.59,1.45,15.93,3.51,26.21c9.44,47.2,54.45,71.41,89.95,35.56c6.7-6.77,10.73-17.64,20.94-6.86
	c8.57,9.05-0.87,16.54-5.5,22.79c-33.41,45.16-87.94,72.57-143.43,62.18c-55.79-10.45-87.66-40.96-98.07-96.78
	c-3.52-18.89-3.34-38.58-3.66-57.92C1144.08,544.82,1144.47,511.85,1144.47,478.89z"/>
</svg>
