<?xml version="1.0" encoding="utf-8"?>
<!-- Generator: Adobe Illustrator 25.0.0, SVG Export Plug-In . SVG Version: 6.00 Build 0)  -->
<svg version="1.1" id="Layer_1" xmlns="http://www.w3.org/2000/svg" xmlns:xlink="http://www.w3.org/1999/xlink" x="0px" y="0px"
	 viewBox="0 0 1920 1080" style="enable-background:new 0 0 1920 1080;" xml:space="preserve">
<style type="text/css">
	.st0{fill:#0044FF;}
	.st1{fill:#FFFFFF;}
</style>
<rect y="115.45" class="st0" width="1920" height="806.26"/>
<path class="st1" d="M727.74,613.06c-11.74-11.44-16.67,3.02-23.04,7.97c-66.09,51.42-149.24,34.11-183.33-39.03
	c-16.71-35.86-20.33-74.25-20.39-113.39c-0.03-15.38,8.83-14.13,18.82-14.09c31.11,0.12,62.22,0.04,93.33,0.04
	c30.14,0,68.57-1.2,98.62,0.39c22.97,1.21,20.41-8.49,18.65-29.32c-2.68-31.76-12.7-60.61-31.5-86.01
	c-66.14-89.38-214.37-87.5-290.59,2.7c-63.19,74.78-78.53,244.73,35.14,332.13c89.73,68.98,216.85,52.98,278.3-36.65
	C726.43,630.97,738.47,623.52,727.74,613.06z M507.61,374.08c2.66-15.12,6.44-30.2,11.44-44.71c5.84-16.96,14.81-32.26,35.93-32.77
	c21.62-0.53,30.66,15.01,36.27,31.99c12.26,37.07,13.56,59.78,17.92,94.71c2.56,20.51,6.68,18.45-16,18.2
	c-31.75-0.35-63.5-0.19-94.84-0.19C501.58,417.15,503.84,395.48,507.61,374.08z"/>
<path class="st1" d="M811.13,449.13c0-43.62,0.45-87.24,0.23-130.86c-0.15-29.48,1.91-25.37-22.7-25.78
	c-5.69-0.1-14.72,2.47-14.63-5.84c0.16-14.31,4.28-10.2,11.33-12.88c52.1-19.78,93.97-58.07,134.6-96c4.74-4.42,9.9-13.05,17.18-8.1
	c11.85,8.07,9.16,11.32,9.14,19.22c-0.04,23.26-1.54,46.57-0.24,69.79c0.88,15.72,3.54,13.69,16.44,14.41
	c23.52,1.31,48.59,0.68,72.87,1.31c8,0.21,28.79-4.11,21.79,10.45c-5.42,11.27-13.08,10.24-21.79,10.11
	c-23.33-0.34-45.24,0-68.93-0.89c-23.61-0.89-20.65,2.73-20.45,18.68c1.01,83.35,0.91,166.71,1.56,250.07
	c0.07,8.59,1.45,15.93,3.51,26.21c9.44,47.2,54.45,71.41,89.95,35.56c6.7-6.77,10.73-17.64,20.94-6.86
	c8.57,9.05-0.87,16.54-5.5,22.79c-33.41,45.16-87.94,72.57-143.43,62.18c-55.79-10.45-87.66-40.96-98.07-96.78
	c-3.52-18.89-3.34-38.58-3.66-57.92C810.73,515.06,811.13,482.09,811.13,449.13z"/>
<path class="st1" d="M1743.12,541.72c25.06-59.44,54.09-111.12,68.65-168.65c9.03-35.68,0.4-61.95-32.45-78.55
	c-9.81-4.96-7.76-7.01-10.06-11.91c-3.4-7.24,8.73-5.88,13.92-5.91c40.87-0.21,81.73-0.21,122.6,0c5.16,0.03,16.4-1.33,13.85,6.7
	c-2.33,7.32-3.97,7.9-10.28,10.28c-37.66,14.2-54.85,47.1-71.18,80.33c-46.1,93.81-86.86,190.03-128.04,286.04
	c-21.8,50.82-45.84,100.52-79.46,144.79c-29.41,38.73-63.49,70.91-115.79,75.47c-46.63,4.06-77.22-23.14-74.61-66.93
	c1.4-23.51,12.39-41.13,33.74-50.21c19.93-8.47,39.05-5.66,57.46,7.93c50.86,37.55,75.54,32.95,111.98-18.94
	c1.11-1.59,2-3.35,3.23-4.84c24.96-30.36,27.79-58.62,7.9-96.41c-50.9-96.69-95.55-196.64-143.38-294.95
	c-12.61-25.93-24.41-53.77-56.66-62.25c-7.89-2.08-6.39-6.35-7.6-10.49c-2.34-8.03,10.47-6.41,16.23-6.43
	c66.16-0.31,132.33-0.2,198.49-0.2c11.68,0,23.36-0.24,35.03,0.12c5.15,0.16,13.99-2.19,12.59,7.14c-1.47,9.84-3.76,8-8.74,9.79
	c-40.03,14.44-48.3,39.23-30.7,81.07C1692.72,429.07,1717.17,482.78,1743.12,541.72z"/>
<path class="st1" d="M289.68,353.82c-36.03-65.17-111.78-94.45-182.71-73.05C39.9,301-6.46,373.16,0.74,446.11
	c10.15,102.88,78.11,140.19,212.04,134.7c6.17,41.13-93.86,212.21-180.96,259.11C5.09,854.32-3.14,858.43,9.2,870.77
	c15.62,15.62,26.76,3.93,39.07-2.06c109.99-64.53,206.27-154.06,249.67-279.77C324.73,511.35,331.98,430.31,289.68,353.82z
	 M113.89,514.2c-19.12,12.84-44.29,11.06-60.95-5.01c-19.55-18.86-24.8-43.59-23.93-69.09c1.41-41.31,18.2-76.46,48.6-104.84
	c3.11-2.9,6.25-9.68,11.36-5.1c4.87,4.37-1.85,7.46-4.12,10.59c-19.53,27.04-27.61,57.21-26.64,91.99
	c39.29-13.87,59.72-6.99,72.13,22.64C139.14,476.39,131.96,502.06,113.89,514.2z"/>
<path class="st1" d="M1144.47,449.17c0-43.62,0.45-87.24,0.23-130.86c-0.15-29.48,1.91-25.37-22.7-25.78
	c-5.69-0.1-14.72,2.47-14.63-5.84c0.16-14.31,4.28-10.2,11.33-12.88c52.1-19.78,93.97-58.07,134.6-96c4.74-4.42,9.9-13.05,17.18-8.1
	c11.85,8.07,9.16,11.32,9.14,19.22c-0.04,23.26-1.54,46.57-0.24,69.79c0.89,15.72,3.54,13.69,16.44,14.41
	c23.52,1.31,48.59,0.68,72.87,1.31c8,0.21,28.79-4.11,21.79,10.45c-5.42,11.27-13.08,10.24-21.79,10.11
	c-23.33-0.34-45.24,0-68.93-0.89c-23.61-0.89-20.65,2.73-20.45,18.68c1.01,83.35,0.91,166.71,1.56,250.07
	c0.07,8.59,1.45,15.93,3.51,26.21c9.44,47.2,54.45,71.41,89.95,35.56c6.7-6.77,10.73-17.64,20.94-6.86
	c8.57,9.05-0.87,16.54-5.5,22.79c-33.41,45.16-87.94,72.57-143.43,62.18c-55.79-10.45-87.66-40.96-98.07-96.78
	c-3.52-18.89-3.34-38.58-3.66-57.92C1144.08,515.1,1144.47,482.13,1144.47,449.17z"/>
</svg>
