<?xml version="1.0" encoding="utf-8"?>
<!-- Generator: Adobe Illustrator 25.0.0, SVG Export Plug-In . SVG Version: 6.00 Build 0)  -->
<svg version="1.1" id="Layer_1" xmlns="http://www.w3.org/2000/svg" xmlns:xlink="http://www.w3.org/1999/xlink" x="0px" y="0px"
	 viewBox="0 0 711.1 710" style="enable-background:new 0 0 711.1 710;" xml:space="preserve">
<style type="text/css">
	.st0{fill:#0040FF;}
	.st1{fill:#FFFFFF;}
</style>
<circle class="st0" cx="355.5" cy="355" r="350"/>
<path class="st1" d="M460.7,174.9c-29.2-52.8-90.5-76.5-148-59.2c-54.3,16.4-91.9,74.8-86.1,133.9c8.2,83.4,63.3,113.6,171.8,109.1
	c5,33.3-76,171.9-146.6,209.9c-21.7,11.7-28.3,15-18.3,25c12.7,12.7,21.7,3.2,31.7-1.7c89.1-52.3,167.1-124.8,202.2-226.6
	C489.1,302.5,495,236.8,460.7,174.9z M318.3,304.8c-15.5,10.4-35.9,9-49.4-4.1c-15.8-15.3-20.1-35.3-19.4-56
	c1.1-33.5,14.7-61.9,39.4-84.9c2.5-2.4,5.1-7.8,9.2-4.1c4,3.5-1.5,6-3.3,8.6c-15.8,21.9-22.4,46.3-21.6,74.5
	c31.8-11.2,48.4-5.7,58.4,18.3C338.8,274.2,332.9,295,318.3,304.8z"/>
</svg>
