<svg width="701" height="700" viewBox="0 0 701 700" fill="none" xmlns="http://www.w3.org/2000/svg">
<path d="M350.5 700C543.8 700 700.5 543.3 700.5 350C700.5 156.7 543.8 0 350.5 0C157.2 0 0.5 156.7 0.5 350C0.5 543.3 157.2 700 350.5 700Z" fill="white"/>
<path d="M455.7 169.9C426.5 117.1 365.2 93.3999 307.7 110.7C253.4 127.1 215.8 185.5 221.6 244.6C229.8 328 284.9 358.2 393.4 353.7C398.4 387 317.4 525.6 246.8 563.6C225.1 575.3 218.5 578.6 228.5 588.6C241.2 601.3 250.2 591.8 260.2 586.9C349.3 534.6 427.3 462.1 462.4 360.3C484.1 297.5 490 231.8 455.7 169.9ZM313.3 299.8C297.8 310.2 277.4 308.8 263.9 295.7C248.1 280.4 243.8 260.4 244.5 239.7C245.6 206.2 259.2 177.8 283.9 154.8C286.4 152.4 289 147 293.1 150.7C297.1 154.2 291.6 156.7 289.8 159.3C274 181.2 267.4 205.6 268.2 233.8C300 222.6 316.6 228.1 326.6 252.1C333.8 269.2 327.9 290 313.3 299.8Z" fill="black"/>
</svg>
