<?xml version="1.0" encoding="utf-8"?>
<!-- Generator: Adobe Illustrator 25.0.0, SVG Export Plug-In . SVG Version: 6.00 Build 0)  -->
<svg version="1.1" id="Layer_1" xmlns="http://www.w3.org/2000/svg" xmlns:xlink="http://www.w3.org/1999/xlink" x="0px" y="0px"
	 viewBox="0 0 711.09 710.02" style="enable-background:new 0 0 711.09 710.02;" xml:space="preserve">
<style type="text/css">
	.st0{fill:#0044FF;}
	.st1{fill:#FFFFFF;}
</style>
<path class="st0" d="M668.09,679.54H43c-6.59,0-11.99-5.4-11.99-11.99V42.47c0-6.59,5.4-11.99,11.99-11.99h625.09
	c6.59,0,11.99,5.4,11.99,11.99v625.09C680.08,674.15,674.68,679.54,668.09,679.54z"/>
<path class="st1" d="M460.71,174.86c-29.19-52.79-90.55-76.51-148.01-59.18c-54.33,16.39-91.89,74.85-86.05,133.94
	c8.23,83.35,63.27,113.56,171.77,109.12c5,33.32-76.04,171.91-146.59,209.9c-21.66,11.66-28.32,14.99-18.32,24.99
	c12.66,12.66,21.68,3.18,31.65-1.67c89.1-52.27,167.1-124.79,202.25-226.64C489.1,302.47,494.97,236.83,460.71,174.86z
	 M318.31,304.79c-15.49,10.4-35.88,8.96-49.37-4.06c-15.84-15.28-20.09-35.31-19.39-55.97c1.14-33.47,14.74-61.94,39.37-84.92
	c2.52-2.35,5.06-7.84,9.21-4.13c3.95,3.54-1.5,6.04-3.33,8.58c-15.83,21.89-22.37,46.33-21.58,74.5
	c31.82-11.23,48.37-5.66,58.43,18.34C338.77,274.16,332.95,294.96,318.31,304.79z"/>
</svg>
