<svg width="60" height="60" viewBox="0 0 60 60" fill="none" xmlns="http://www.w3.org/2000/svg">
<path d="M0 0H60V60H16C7.16344 60 0 52.8366 0 44V0Z" fill="#0040FF"/>
<path d="M21.8949 47.2076C22.5736 44.4423 23.3134 41.8931 24.1142 39.5599C24.9207 37.1979 25.8461 34.9799 26.8904 32.9059C27.9403 30.8031 29.1725 28.7436 30.5871 26.7272C32.031 24.7109 33.7326 22.6513 35.6918 20.5485H21.0398L22.0706 15.1908H43.7186L42.9704 19.0795C40.6609 21.3263 38.7199 23.4866 37.1475 25.5606C35.6045 27.6346 34.32 29.7373 33.2939 31.8689C32.2971 34.0005 31.4138 36.3049 30.6439 38.7821C29.9033 41.2594 29.1576 44.0679 28.4069 47.2076H21.8949Z" fill="white"/>
</svg>
