<svg width="60" height="60" viewBox="0 0 60 60" fill="none" xmlns="http://www.w3.org/2000/svg">
<g clip-path="url(#clip0_2053_38802)">
<path d="M0 0H60V60H16C7.16344 60 0 52.8366 0 44V0Z" fill="#0040FF"/>
<path d="M4.56234 47.2076L5.55986 42.0227H12.5999L16.4819 21.8448H10.5419L11.3066 17.8697C13.0047 17.5816 14.4792 17.2359 15.7301 16.8327C17.0159 16.4006 18.2359 15.8533 19.39 15.1908H24.186L19.0239 42.0227H25.1399L24.1423 47.2076H4.56234ZM41.2955 47.2076L45.0777 27.5482C45.2551 26.6264 45.495 25.5318 45.7975 24.2644C46.1055 22.9682 46.3803 21.8448 46.6219 20.8942H46.4019C45.8543 21.7583 45.2774 22.6225 44.6711 23.4866C44.0649 24.3508 43.4412 25.2293 42.8 26.1223L36.2105 34.0725H53.7225L52.7915 38.9118H28.9875L29.8188 34.591L45.6951 15.1908H53.4831L47.3235 47.2076H41.2955Z" fill="white"/>
</g>
<defs>
<clipPath id="clip0_2053_38802">
<path d="M0 0H60V60H16C7.16344 60 0 52.8366 0 44V0Z" fill="white"/>
</clipPath>
</defs>
</svg>
