<svg width="60" height="60" viewBox="0 0 60 60" fill="none" xmlns="http://www.w3.org/2000/svg">
<g clip-path="url(#clip0_2053_38812)">
<path d="M0 0H60V60H16C7.16344 60 0 52.8366 0 44V0Z" fill="#0040FF"/>
<path d="M4.56234 47.2076L5.55986 42.0227H12.5999L16.4819 21.8448H10.5419L11.3066 17.8697C13.0047 17.5816 14.4792 17.2359 15.7301 16.8327C17.0159 16.4006 18.2359 15.8533 19.39 15.1908H24.186L19.0239 42.0227H25.1399L24.1423 47.2076H4.56234ZM28.3595 47.2076L29.066 43.535C32.5275 40.9425 35.5129 38.5373 38.0223 36.3193C40.561 34.1013 42.5705 32.0418 44.051 30.1406C45.5369 28.2107 46.4379 26.4248 46.7537 24.7829C46.9532 23.7459 46.9371 22.8385 46.7054 22.0608C46.4737 21.2831 46.03 20.6925 45.3742 20.2893C44.7534 19.8572 43.9149 19.6412 42.8589 19.6412C41.6856 19.6412 40.5365 19.9724 39.4117 20.6349C38.3218 21.2686 37.2803 22.032 36.2872 22.9249L33.3359 19.5115C35.1715 17.8985 36.959 16.6886 38.6981 15.8821C40.4722 15.0468 42.4592 14.6291 44.6592 14.6291C46.7125 14.6291 48.4215 15.0468 49.7861 15.8821C51.1856 16.6886 52.1694 17.8264 52.7374 19.2955C53.3055 20.7646 53.3983 22.4929 53.0159 24.4804C52.6446 26.4104 51.7663 28.3835 50.3811 30.3999C49.0307 32.3874 47.343 34.375 45.3179 36.3625C43.2929 38.3501 41.0974 40.3088 38.7314 42.2388C39.6043 42.1235 40.5302 42.0371 41.5093 41.9795C42.5233 41.8931 43.4116 41.8499 44.1742 41.8499H51.2142L50.1835 47.2076H28.3595Z" fill="white"/>
</g>
<defs>
<clipPath id="clip0_2053_38812">
<path d="M0 0H60V60H16C7.16344 60 0 52.8366 0 44V0Z" fill="white"/>
</clipPath>
</defs>
</svg>
