<svg width="60" height="60" viewBox="0 0 60 60" fill="none" xmlns="http://www.w3.org/2000/svg">
<path d="M0 0H60V60H16C7.16344 60 0 52.8366 0 44V0Z" fill="#0040FF"/>
<path d="M25.6065 47.8125C23.9052 47.8125 22.4186 47.6109 21.1469 47.2076C19.8696 46.8332 18.7667 46.3147 17.8382 45.6522C16.9445 44.9608 16.1967 44.1975 15.5947 43.3622L19.4038 39.3438C20.2293 40.2368 21.165 41.0145 22.2109 41.6771C23.2917 42.3108 24.5654 42.6276 26.032 42.6276C27.1467 42.6276 28.148 42.4548 29.0358 42.1091C29.953 41.7635 30.6953 41.2594 31.2627 40.5969C31.8595 39.9343 32.2494 39.1278 32.4322 38.1772C32.6373 37.1115 32.5479 36.2041 32.1639 35.4552C31.8149 34.6774 31.0338 34.0869 29.8208 33.6836C28.6077 33.2804 26.8278 33.0787 24.4811 33.0787L25.3623 28.4987C27.3569 28.4987 28.9651 28.2971 30.1867 27.8938C31.4138 27.4617 32.3313 26.8856 32.9392 26.1655C33.5819 25.4166 33.9947 24.5668 34.1776 23.6163C34.4159 22.3776 34.2202 21.4127 33.5906 20.7214C32.9664 20.0012 31.965 19.6412 30.5864 19.6412C29.4424 19.6412 28.3218 19.9004 27.2247 20.4189C26.1625 20.9086 25.0643 21.5855 23.9301 22.4497L21.3425 18.5178C23.0071 17.3368 24.6978 16.4006 26.4148 15.7093C28.1374 14.9891 29.952 14.6291 31.8586 14.6291C33.9413 14.6291 35.7109 14.9603 37.1675 15.6229C38.6533 16.2854 39.7143 17.2503 40.3505 18.5178C40.9867 19.7852 41.1302 21.3263 40.7811 23.141C40.4485 24.8693 39.6938 26.3527 38.5168 27.5914C37.3399 28.83 35.8223 29.7806 33.9642 30.4431L33.9227 30.6591C35.0644 30.976 36.0499 31.4945 36.8794 32.2146C37.7437 32.9059 38.352 33.7845 38.7043 34.8503C39.0859 35.916 39.141 37.1547 38.8694 38.5661C38.4981 40.496 37.6515 42.1523 36.3295 43.535C35.0368 44.9176 33.4384 45.9834 31.5343 46.7324C29.6651 47.4525 27.6892 47.8125 25.6065 47.8125Z" fill="white"/>
</svg>
