<svg width="60" height="60" viewBox="0 0 60 60" fill="none" xmlns="http://www.w3.org/2000/svg">
<g clip-path="url(#clip0_2053_38808)">
<path d="M0 0H60V60H16C7.16344 60 0 52.8366 0 44V0Z" fill="#0040FF"/>
<path d="M4.56234 47.2076L5.55986 42.0227H12.5999L16.4819 21.8448H10.5419L11.3066 17.8697C13.0047 17.5816 14.4792 17.2359 15.7301 16.8327C17.0159 16.4006 18.2359 15.8533 19.39 15.1908H24.186L19.0239 42.0227H25.1399L24.1423 47.2076H4.56234ZM37.5711 47.8125C35.5471 47.8125 33.8564 47.4525 32.4989 46.7324C31.1708 46.0122 30.1169 45.1625 29.3373 44.1831L33.5092 40.3376C33.9684 41.0001 34.6258 41.5474 35.4813 41.9795C36.3368 42.4116 37.2486 42.6276 38.2166 42.6276C39.1553 42.6276 40.0887 42.426 41.017 42.0227C41.9508 41.5906 42.8143 40.9137 43.6077 39.992C44.4359 39.0414 45.1756 37.7884 45.8269 36.2329C46.5075 34.6774 47.0667 32.7619 47.5045 30.4863C48.0309 27.7498 48.1853 25.575 47.9677 23.9619C47.7793 22.3488 47.3264 21.1966 46.6087 20.5053C45.8966 19.7852 44.9978 19.4251 43.9125 19.4251C43.1205 19.4251 42.3456 19.6412 41.5878 20.0732C40.83 20.5053 40.1627 21.1534 39.5857 22.0176C39.0382 22.8817 38.6369 23.9763 38.382 25.3014C38.1437 26.54 38.1348 27.577 38.3555 28.4123C38.5816 29.2189 38.9933 29.8238 39.5903 30.227C40.2168 30.6303 40.9993 30.8319 41.938 30.8319C42.8473 30.8319 43.8386 30.5583 44.9119 30.011C45.9852 29.4637 47.0425 28.5419 48.0839 27.2457L47.569 31.5233C46.862 32.301 46.0424 32.9779 45.1103 33.554C44.2074 34.1301 43.3002 34.5766 42.3886 34.8935C41.4769 35.2103 40.6251 35.3687 39.8331 35.3687C38.0438 35.3687 36.5144 35.0087 35.2449 34.2886C33.981 33.5396 33.0797 32.4306 32.541 30.9616C32.0372 29.4637 32.0042 27.577 32.442 25.3014C32.8632 23.1122 33.6955 21.2254 34.9389 19.6412C36.1879 18.0281 37.6729 16.7895 39.3938 15.9253C41.1147 15.0612 42.8992 14.6291 44.7472 14.6291C46.3019 14.6291 47.7076 14.9459 48.9643 15.5796C50.256 16.1846 51.3197 17.1351 52.1557 18.4313C53.0265 19.6988 53.576 21.3407 53.8041 23.357C54.067 25.3446 53.9325 27.721 53.4005 30.4863C52.8186 33.5108 51.9797 36.1177 50.8839 38.3069C49.7936 40.4672 48.5113 42.2532 47.0371 43.6646C45.5922 45.0761 44.0553 46.1274 42.4263 46.8188C40.8028 47.4813 39.1844 47.8125 37.5711 47.8125Z" fill="white"/>
</g>
<defs>
<clipPath id="clip0_2053_38808">
<path d="M0 0H60V60H16C7.16344 60 0 52.8366 0 44V0Z" fill="white"/>
</clipPath>
</defs>
</svg>
