<svg width="60" height="60" viewBox="0 0 60 60" fill="none" xmlns="http://www.w3.org/2000/svg">
<g clip-path="url(#clip0_2053_38810)">
<path d="M0 0H60V60H16C7.16344 60 0 52.8366 0 44V0Z" fill="#0040FF"/>
<path d="M4.56234 47.2076L5.55986 42.0227H12.5999L16.4819 21.8448H10.5419L11.3066 17.8697C13.0047 17.5816 14.4792 17.2359 15.7301 16.8327C17.0159 16.4006 18.2359 15.8533 19.39 15.1908H24.186L19.0239 42.0227H25.1399L24.1423 47.2076H4.56234ZM30.0755 47.2076L31.073 42.0227H38.113L41.995 21.8448H36.055L36.8198 17.8697C38.5178 17.5816 39.9923 17.2359 41.2433 16.8327C42.5291 16.4006 43.749 15.8533 44.9031 15.1908H49.6991L44.537 42.0227H50.653L49.6555 47.2076H30.0755Z" fill="white"/>
</g>
<defs>
<clipPath id="clip0_2053_38810">
<path d="M0 0H60V60H16C7.16344 60 0 52.8366 0 44V0Z" fill="white"/>
</clipPath>
</defs>
</svg>
