<svg width="60" height="60" viewBox="0 0 60 60" fill="none" xmlns="http://www.w3.org/2000/svg">
<g clip-path="url(#clip0_2053_38810)">
<path d="M0 0H60V60H16C7.16344 60 0 52.8366 0 44V0Z" fill="#0040FF"/>
<path d="M4.56234 47.2076L5.55986 42.0227H12.5999L16.4819 21.8448H10.5419L11.3066 17.8697C13.0047 17.5816 14.4792 17.2359 15.7301 16.8327C17.0159 16.4006 18.2359 15.8533 19.39 15.1908H24.186L19.0239 42.0227H25.1399L24.1423 47.2076H4.56234ZM34.6515 47.2076C35.3301 44.4423 36.0699 41.8931 36.8708 39.5599C37.6772 37.1979 38.6026 34.9799 39.647 32.9059C40.6968 30.8031 41.9291 28.7436 43.3437 26.7272C44.7876 24.7109 46.4892 22.6513 48.4484 20.5485H33.7964L34.8271 15.1908H56.4751L55.727 19.0795C53.4174 21.3263 51.4764 23.4866 49.9041 25.5606C48.3611 27.6346 47.0765 29.7373 46.0505 31.8689C45.0537 34.0005 44.1704 36.3049 43.4004 38.7821C42.6598 41.2594 41.9142 44.0679 41.1635 47.2076H34.6515Z" fill="white"/>
</g>
<defs>
<clipPath id="clip0_2053_38810">
<path d="M0 0H60V60H16C7.16344 60 0 52.8366 0 44V0Z" fill="white"/>
</clipPath>
</defs>
</svg>
