<svg width="60" height="60" viewBox="0 0 60 60" fill="none" xmlns="http://www.w3.org/2000/svg">
<path d="M0 0H60V60H16C7.16344 60 0 52.8366 0 44V0Z" fill="#0040FF"/>
<path d="M24.8145 47.8125C22.7905 47.8125 21.0998 47.4525 19.7423 46.7324C18.4142 46.0122 17.3604 45.1625 16.5808 44.1831L20.7526 40.3376C21.2118 41.0001 21.8692 41.5474 22.7247 41.9795C23.5803 42.4116 24.492 42.6276 25.46 42.6276C26.3987 42.6276 27.3322 42.426 28.2604 42.0227C29.1942 41.5906 30.0578 40.9137 30.8511 39.992C31.6793 39.0414 32.4191 37.7884 33.0703 36.2329C33.7509 34.6774 34.3101 32.7619 34.7479 30.4863C35.2744 27.7498 35.4288 25.575 35.2111 23.9619C35.0228 22.3488 34.5698 21.1966 33.8521 20.5053C33.14 19.7852 32.2413 19.4251 31.1559 19.4251C30.3639 19.4251 29.589 19.6412 28.8313 20.0732C28.0735 20.5053 27.4061 21.1534 26.8292 22.0176C26.2816 22.8817 25.8803 23.9763 25.6254 25.3014C25.3871 26.54 25.3783 27.577 25.5989 28.4123C25.8251 29.2189 26.2367 29.8238 26.8338 30.227C27.4602 30.6303 28.2427 30.8319 29.1814 30.8319C30.0907 30.8319 31.082 30.5583 32.1553 30.011C33.2286 29.4637 34.286 28.5419 35.3273 27.2457L34.8124 31.5233C34.1054 32.301 33.2859 32.9779 32.3537 33.554C31.4509 34.1301 30.5436 34.5766 29.632 34.8935C28.7204 35.2103 27.8686 35.3687 27.0766 35.3687C25.2872 35.3687 23.7578 35.0087 22.4884 34.2886C21.2245 33.5396 20.3232 32.4306 19.7845 30.9616C19.2806 29.4637 19.2476 27.577 19.6854 25.3014C20.1066 23.1122 20.9389 21.2254 22.1824 19.6412C23.4314 18.0281 24.9163 16.7895 26.6373 15.9253C28.3582 15.0612 30.1426 14.6291 31.9906 14.6291C33.5453 14.6291 34.951 14.9459 36.2078 15.5796C37.4994 16.1846 38.5632 17.1351 39.3991 18.4313C40.27 19.6988 40.8194 21.3407 41.0475 23.357C41.3104 25.3446 41.1759 27.721 40.6439 30.4863C40.062 33.5108 39.2232 36.1177 38.1273 38.3069C37.037 40.4672 35.7548 42.2532 34.2805 43.6646C32.8357 45.0761 31.2987 46.1274 29.6697 46.8188C28.0463 47.4813 26.4279 47.8125 24.8145 47.8125Z" fill="white"/>
</svg>
