<svg width="60" height="60" viewBox="0 0 60 60" fill="none" xmlns="http://www.w3.org/2000/svg">
<g clip-path="url(#clip0_2052_38797)">
<path d="M0 0H60V60H16C7.16344 60 0 52.8366 0 44V0Z" fill="#0040FF"/>
<path d="M4.56234 47.2076L5.55986 42.0227H12.5999L16.4819 21.8448H10.5419L11.3066 17.8697C13.0047 17.5816 14.4792 17.2359 15.7301 16.8327C17.0159 16.4006 18.2359 15.8533 19.39 15.1908H24.186L19.0239 42.0227H25.1399L24.1423 47.2076H4.56234ZM38.3631 47.8125C36.6618 47.8125 35.1752 47.6109 33.9035 47.2076C32.6262 46.8332 31.5233 46.3147 30.5947 45.6522C29.7011 44.9608 28.9532 44.1975 28.3513 43.3622L32.1604 39.3438C32.9859 40.2368 33.9216 41.0145 34.9675 41.6771C36.0482 42.3108 37.3219 42.6276 38.7886 42.6276C39.9033 42.6276 40.9045 42.4548 41.7924 42.1091C42.7095 41.7635 43.4518 41.2594 44.0193 40.5969C44.6161 39.9343 45.0059 39.1278 45.1888 38.1772C45.3939 37.1115 45.3044 36.2041 44.9205 35.4552C44.5715 34.6774 43.7904 34.0869 42.5773 33.6836C41.3642 33.2804 39.5844 33.0787 37.2377 33.0787L38.1188 28.4987C40.1135 28.4987 41.7216 28.2971 42.9432 27.8938C44.1703 27.4617 45.0879 26.8856 45.6957 26.1655C46.3385 25.4166 46.7513 24.5668 46.9342 23.6163C47.1725 22.3776 46.9768 21.4127 46.3471 20.7214C45.723 20.0012 44.7216 19.6412 43.3429 19.6412C42.1989 19.6412 41.0784 19.9004 39.9813 20.4189C38.9191 20.9086 37.8209 21.5855 36.6866 22.4497L34.0991 18.5178C35.7636 17.3368 37.4544 16.4006 39.1714 15.7093C40.8939 14.9891 42.7085 14.6291 44.6152 14.6291C46.6979 14.6291 48.4675 14.9603 49.924 15.6229C51.4099 16.2854 52.4709 17.2503 53.1071 18.5178C53.7432 19.7852 53.8867 21.3263 53.5376 23.141C53.2051 24.8693 52.4504 26.3527 51.2734 27.5914C50.0964 28.83 48.5789 29.7806 46.7208 30.4431L46.6792 30.6591C47.8209 30.976 48.8065 31.4945 49.636 32.2146C50.5003 32.9059 51.1086 33.7845 51.4609 34.8503C51.8425 35.916 51.8975 37.1547 51.626 38.5661C51.2547 40.496 50.408 42.1523 49.086 43.535C47.7934 44.9176 46.195 45.9834 44.2909 46.7324C42.4217 47.4525 40.4458 47.8125 38.3631 47.8125Z" fill="white"/>
</g>
<defs>
<clipPath id="clip0_2052_38797">
<path d="M0 0H60V60H16C7.16344 60 0 52.8366 0 44V0Z" fill="white"/>
</clipPath>
</defs>
</svg>
