<svg width="60" height="60" viewBox="0 0 60 60" fill="none" xmlns="http://www.w3.org/2000/svg">
<path d="M0 0H60V60H16C7.16344 60 0 52.8366 0 44V0Z" fill="#0040FF"/>
<path d="M27.4985 47.8125C25.9732 47.8125 24.5528 47.4957 23.2374 46.862C21.9513 46.2283 20.8903 45.2633 20.0544 43.9671C19.2239 42.642 18.68 40.9713 18.4226 38.955C18.2001 36.9098 18.3604 34.4758 18.9035 31.6529C19.4743 28.686 20.3048 26.1223 21.3951 23.9619C22.5147 21.8015 23.7915 20.0444 25.2253 18.6906C26.6646 17.308 28.196 16.2854 29.8195 15.6229C31.4722 14.9603 33.1346 14.6291 34.8066 14.6291C36.8013 14.6291 38.448 14.9891 39.7468 15.7093C41.0805 16.4006 42.1343 17.2503 42.9084 18.2585L38.7449 22.0608C38.3095 21.4271 37.6814 20.8798 36.8607 20.4189C36.0401 19.958 35.1604 19.7276 34.2218 19.7276C32.9018 19.7276 31.627 20.102 30.3976 20.851C29.1975 21.5999 28.1086 22.8385 27.1307 24.5668C26.1529 26.2951 25.3758 28.6572 24.7995 31.6529C24.2674 34.4182 24.0901 36.6362 24.2673 38.3069C24.4794 39.9488 24.9388 41.1442 25.6454 41.8931C26.3519 42.642 27.2332 43.0165 28.2892 43.0165C29.1106 43.0165 29.8855 42.8005 30.6139 42.3684C31.3773 41.9075 32.0474 41.245 32.6243 40.3808C33.2068 39.4879 33.6227 38.3933 33.8721 37.097C34.1159 35.8296 34.1101 34.7926 33.8546 33.9861C33.6284 33.1796 33.2021 32.5746 32.5757 32.1714C31.9786 31.7681 31.2108 31.5665 30.2721 31.5665C29.3921 31.5665 28.4154 31.8401 27.3421 32.3874C26.2744 32.9059 25.2024 33.8277 24.1261 35.1527L24.6411 30.8751C25.3829 30.0686 26.2053 29.3773 27.1081 28.8012C28.0403 28.2251 28.9594 27.793 29.8655 27.505C30.8009 27.2169 31.6206 27.0729 32.3246 27.0729C34.1433 27.0729 35.6873 27.4329 36.9568 28.1531C38.2556 28.8732 39.1597 29.9678 39.669 31.4368C40.1784 32.9059 40.2114 34.7926 39.7681 37.097C39.3469 39.2862 38.5118 41.1874 37.2628 42.8005C36.0487 44.3847 34.5784 45.6234 32.8519 46.5163C31.131 47.3805 29.3465 47.8125 27.4985 47.8125Z" fill="white"/>
</svg>
