<svg width="60" height="60" viewBox="0 0 60 60" fill="none" xmlns="http://www.w3.org/2000/svg">
<path d="M0 0H60V60H16C7.16344 60 0 52.8366 0 44V0Z" fill="#0040FF"/>
<path d="M25.7825 47.8125C24.0519 47.8125 22.5506 47.6109 21.2789 47.2076C20.0072 46.8044 18.907 46.2715 17.9785 45.609C17.0499 44.9464 16.2498 44.2263 15.5781 43.4486L19.3515 39.3871C19.8511 39.992 20.4058 40.5393 21.0156 41.0289C21.6547 41.5186 22.3719 41.9075 23.1672 42.1955C23.9918 42.4836 24.9027 42.6276 25.9 42.6276C27.0147 42.6276 28.0417 42.3972 28.981 41.9363C29.9497 41.4754 30.7665 40.8129 31.4314 39.9488C32.1019 39.0558 32.5563 37.99 32.7946 36.7514C33.1492 34.9079 32.9102 33.482 32.0775 32.4738C31.2741 31.4657 30.0511 30.9616 28.4085 30.9616C27.4698 30.9616 26.6382 31.0912 25.9136 31.3504C25.1946 31.5809 24.293 31.9985 23.2086 32.6035L20.618 30.7455L24.4906 15.1908H41.9146L40.8838 20.5485H29.0478L27.1267 27.3321C27.8275 27.0441 28.4997 26.828 29.1434 26.684C29.7871 26.54 30.4756 26.468 31.209 26.468C33.0276 26.468 34.6304 26.828 36.0172 27.5482C37.4095 28.2395 38.4162 29.3341 39.0374 30.8319C39.6586 32.3298 39.7447 34.2453 39.2958 36.5786C38.8414 38.9406 37.908 40.9713 36.4957 42.6708C35.1183 44.3415 33.4784 45.6234 31.5759 46.5163C29.7083 47.3805 27.7772 47.8125 25.7825 47.8125Z" fill="white"/>
</svg>
