<svg width="60" height="60" viewBox="0 0 60 60" fill="none" xmlns="http://www.w3.org/2000/svg">
<g clip-path="url(#clip0_2053_38806)">
<path d="M0 0H60V60H16C7.16344 60 0 52.8366 0 44V0Z" fill="#0040FF"/>
<path d="M4.56234 47.2076L5.55986 42.0227H12.5999L16.4819 21.8448H10.5419L11.3066 17.8697C13.0047 17.5816 14.4792 17.2359 15.7301 16.8327C17.0159 16.4006 18.2359 15.8533 19.39 15.1908H24.186L19.0239 42.0227H25.1399L24.1423 47.2076H4.56234ZM39.3311 47.8125C37.1311 47.8125 35.3142 47.1932 33.8805 45.9546C32.4817 44.6872 31.5512 42.8149 31.0892 40.3376C30.662 37.8316 30.803 34.735 31.5124 31.048C32.2162 27.3897 33.2555 24.3508 34.6304 21.9312C36.0401 19.4827 37.6827 17.6536 39.5581 16.4438C41.4628 15.234 43.5152 14.6291 45.7152 14.6291C47.9445 14.6291 49.7614 15.2484 51.1658 16.487C52.5757 17.6968 53.5025 19.5115 53.9464 21.9312C54.4195 24.3508 54.3042 27.3897 53.6004 31.048C52.891 34.735 51.826 37.8316 50.4052 40.3376C49.0192 42.8149 47.383 44.6872 45.4965 45.9546C43.6156 47.1932 41.5604 47.8125 39.3311 47.8125ZM40.287 42.8437C41.255 42.8437 42.175 42.4836 43.0469 41.7635C43.9187 41.0433 44.7235 39.8335 45.4611 38.134C46.2043 36.4057 46.8641 34.0437 47.4404 31.048C48.0112 28.0811 48.252 25.7622 48.1627 24.0915C48.079 22.392 47.7342 21.211 47.1284 20.5485C46.528 19.8572 45.7439 19.5115 44.7759 19.5115C43.8665 19.5115 42.964 19.8572 42.0684 20.5485C41.2076 21.211 40.3937 22.392 39.6267 24.0915C38.8653 25.7622 38.1992 28.0811 37.6284 31.048C37.0521 34.0437 36.8176 36.4057 36.9251 38.134C37.0382 39.8335 37.3921 41.0433 37.9869 41.7635C38.611 42.4836 39.3777 42.8437 40.287 42.8437Z" fill="white"/>
</g>
<defs>
<clipPath id="clip0_2053_38806">
<path d="M0 0H60V60H16C7.16344 60 0 52.8366 0 44V0Z" fill="white"/>
</clipPath>
</defs>
</svg>
