<svg width="60" height="60" viewBox="0 0 60 60" fill="none" xmlns="http://www.w3.org/2000/svg">
<g clip-path="url(#clip0_2053_38812)">
<path d="M0 0H60V60H16C7.16344 60 0 52.8366 0 44V0Z" fill="#0040FF"/>
<path d="M4.56234 47.2076L5.55986 42.0227H12.5999L16.4819 21.8448H10.5419L11.3066 17.8697C13.0047 17.5816 14.4792 17.2359 15.7301 16.8327C17.0159 16.4006 18.2359 15.8533 19.39 15.1908H24.186L19.0239 42.0227H25.1399L24.1423 47.2076H4.56234ZM39.3311 47.8125C37.2484 47.8125 35.455 47.4525 33.9509 46.7324C32.4468 46.0122 31.3354 45.004 30.6168 43.7078C29.9275 42.4116 29.7436 40.9281 30.065 39.2574C30.331 37.8748 30.8131 36.665 31.5113 35.628C32.2443 34.5622 33.111 33.6404 34.1113 32.8627C35.1116 32.085 36.1602 31.4368 37.2573 30.9184L37.2989 30.7023C36.2332 29.8382 35.4088 28.7868 34.8257 27.5482C34.2482 26.2807 34.1202 24.8117 34.4416 23.141C34.7741 21.4127 35.4876 19.9148 36.5821 18.6474C37.6766 17.38 39.0237 16.4006 40.6234 15.7093C42.2524 15.0179 44.0056 14.6723 45.8829 14.6723C47.8189 14.6723 49.4216 15.0323 50.6911 15.7525C51.9661 16.4438 52.863 17.4232 53.3818 18.6906C53.93 19.958 54.0378 21.4559 53.7053 23.1842C53.5058 24.2212 53.112 25.2005 52.524 26.1223C51.9654 27.0441 51.2913 27.8794 50.5019 28.6284C49.7474 29.3485 48.9535 29.9678 48.1205 30.4863L48.0789 30.7023C49.0058 31.2208 49.8051 31.8689 50.4768 32.6467C51.1485 33.4244 51.6284 34.3606 51.9165 35.4552C52.2101 36.5209 52.2156 37.7884 51.933 39.2574C51.6227 40.8705 50.8735 42.3252 49.6854 43.6214C48.5267 44.9176 47.054 45.9402 45.2672 46.6891C43.4805 47.4381 41.5018 47.8125 39.3311 47.8125ZM44.9877 28.9308C45.9404 28.0955 46.6933 27.2313 47.2465 26.3383C47.7996 25.4454 48.1676 24.5236 48.3505 23.5731C48.5167 22.7089 48.4876 21.9456 48.2631 21.2831C48.0734 20.5917 47.6919 20.0588 47.1186 19.6844C46.5453 19.3099 45.804 19.1227 44.8947 19.1227C43.78 19.1227 42.7749 19.4683 41.8792 20.1597C40.9835 20.851 40.411 21.8448 40.1616 23.141C39.9732 24.1204 40.059 24.9701 40.4192 25.6902C40.8142 26.3816 41.4165 26.9865 42.226 27.505C43.0412 27.9946 43.9617 28.4699 44.9877 28.9308ZM40.3276 43.3189C41.2663 43.3189 42.1181 43.1605 42.883 42.8437C43.6829 42.498 44.3491 42.0083 44.8817 41.3746C45.4198 40.7121 45.7748 39.9343 45.9466 39.0414C46.1073 38.206 46.0551 37.4859 45.7902 36.881C45.5601 36.2473 45.1667 35.7 44.6101 35.2391C44.0589 34.7494 43.3822 34.303 42.5798 33.8997C41.7773 33.4964 40.8925 33.0643 39.9251 32.6035C38.9066 33.3236 38.0189 34.2021 37.2621 35.2391C36.5108 36.2473 36.0187 37.3563 35.786 38.5661C35.6031 39.5167 35.6771 40.352 36.0079 41.0722C36.3735 41.7635 36.9282 42.3108 37.672 42.714C38.4157 43.1173 39.3009 43.3189 40.3276 43.3189Z" fill="white"/>
</g>
<defs>
<clipPath id="clip0_2053_38812">
<path d="M0 0H60V60H16C7.16344 60 0 52.8366 0 44V0Z" fill="white"/>
</clipPath>
</defs>
</svg>
