<svg width="60" height="60" viewBox="0 0 60 60" fill="none" xmlns="http://www.w3.org/2000/svg">
<path d="M0 0H60V60H16C7.16344 60 0 52.8366 0 44V0Z" fill="#0040FF"/>
<path d="M15.6029 47.2076L16.3095 43.535C19.7709 40.9425 22.7563 38.5373 25.2657 36.3193C27.8044 34.1013 29.814 32.0418 31.2944 30.1406C32.7804 28.2107 33.6813 26.4248 33.9972 24.7829C34.1967 23.7459 34.1806 22.8385 33.9489 22.0608C33.7172 21.2831 33.2734 20.6925 32.6177 20.2893C31.9968 19.8572 31.1584 19.6412 30.1024 19.6412C28.929 19.6412 27.78 19.9724 26.6552 20.6349C25.5653 21.2686 24.5237 22.032 23.5306 22.9249L20.5793 19.5115C22.415 17.8985 24.2024 16.6886 25.9416 15.8821C27.7156 15.0468 29.7026 14.6291 31.9026 14.6291C33.956 14.6291 35.665 15.0468 37.0296 15.8821C38.4291 16.6886 39.4128 17.8264 39.9809 19.2955C40.5489 20.7646 40.6417 22.4929 40.2594 24.4804C39.8881 26.4104 39.0098 28.3835 37.6245 30.3999C36.2741 32.3874 34.5864 34.375 32.5614 36.3625C30.5363 38.3501 28.3408 40.3088 25.9749 42.2388C26.8477 42.1235 27.7736 42.0371 28.7527 41.9795C29.7667 41.8931 30.655 41.8499 31.4177 41.8499H38.4577L37.4269 47.2076H15.6029Z" fill="white"/>
</svg>
