<svg width="60" height="60" viewBox="0 0 60 60" fill="none" xmlns="http://www.w3.org/2000/svg">
<path d="M0 0H60V60H16C7.16344 60 0 52.8366 0 44V0Z" fill="#0040FF"/>
<path d="M26.5745 47.8125C24.4919 47.8125 22.6985 47.4525 21.1943 46.7324C19.6902 46.0122 18.5788 45.004 17.8602 43.7078C17.1709 42.4116 16.987 40.9281 17.3084 39.2574C17.5744 37.8748 18.0565 36.665 18.7547 35.628C19.4877 34.5622 20.3544 33.6404 21.3547 32.8627C22.355 32.085 23.4037 31.4368 24.5008 30.9184L24.5423 30.7023C23.4766 29.8382 22.6522 28.7868 22.0692 27.5482C21.4917 26.2807 21.3636 24.8117 21.6851 23.141C22.0176 21.4127 22.7311 19.9148 23.8256 18.6474C24.9201 17.38 26.2672 16.4006 27.8668 15.7093C29.4958 15.0179 31.249 14.6723 33.1263 14.6723C35.0623 14.6723 36.6651 15.0323 37.9345 15.7525C39.2095 16.4438 40.1064 17.4232 40.6253 18.6906C41.1734 19.958 41.2812 21.4559 40.9487 23.1842C40.7492 24.2212 40.3555 25.2005 39.7675 26.1223C39.2088 27.0441 38.5348 27.8794 37.7453 28.6284C36.9908 29.3485 36.197 29.9678 35.3639 30.4863L35.3223 30.7023C36.2493 31.2208 37.0486 31.8689 37.7203 32.6467C38.392 33.4244 38.8719 34.3606 39.1599 35.4552C39.4536 36.5209 39.4591 37.7884 39.1764 39.2574C38.8661 40.8705 38.1169 42.3252 36.9289 43.6214C35.7701 44.9176 34.2974 45.9402 32.5107 46.6891C30.7239 47.4381 28.7452 47.8125 26.5745 47.8125ZM32.2312 28.9308C33.1839 28.0955 33.9368 27.2313 34.4899 26.3383C35.043 25.4454 35.411 24.5236 35.5939 23.5731C35.7602 22.7089 35.731 21.9456 35.5065 21.2831C35.3168 20.5917 34.9354 20.0588 34.3621 19.6844C33.7888 19.3099 33.0475 19.1227 32.1381 19.1227C31.0235 19.1227 30.0183 19.4683 29.1226 20.1597C28.227 20.851 27.6544 21.8448 27.4051 23.141C27.2166 24.1204 27.3025 24.9701 27.6626 25.6902C28.0576 26.3816 28.6599 26.9865 29.4695 27.505C30.2846 27.9946 31.2052 28.4699 32.2312 28.9308ZM27.571 43.3189C28.5097 43.3189 29.3615 43.1605 30.1265 42.8437C30.9263 42.498 31.5925 42.0083 32.1251 41.3746C32.6632 40.7121 33.0182 39.9343 33.19 39.0414C33.3507 38.206 33.2986 37.4859 33.0336 36.881C32.8035 36.2473 32.4102 35.7 31.8535 35.2391C31.3024 34.7494 30.6256 34.303 29.8232 33.8997C29.0208 33.4964 28.1359 33.0643 27.1686 32.6035C26.15 33.3236 25.2623 34.2021 24.5055 35.2391C23.7542 36.2473 23.2622 37.3563 23.0294 38.5661C22.8466 39.5167 22.9205 40.352 23.2513 41.0722C23.617 41.7635 24.1717 42.3108 24.9154 42.714C25.6592 43.1173 26.5444 43.3189 27.571 43.3189Z" fill="white"/>
</svg>
