<svg width="60" height="60" viewBox="0 0 60 60" fill="none" xmlns="http://www.w3.org/2000/svg">
<g clip-path="url(#clip0_2053_38804)">
<path d="M0 0H60V60H16C7.16344 60 0 52.8366 0 44V0Z" fill="#0040FF"/>
<path d="M4.56234 47.2076L5.55986 42.0227H12.5999L16.4819 21.8448H10.5419L11.3066 17.8697C13.0047 17.5816 14.4792 17.2359 15.7301 16.8327C17.0159 16.4006 18.2359 15.8533 19.39 15.1908H24.186L19.0239 42.0227H25.1399L24.1423 47.2076H4.56234ZM38.5391 47.8125C36.8084 47.8125 35.3072 47.6109 34.0355 47.2076C32.7637 46.8044 31.6636 46.2715 30.735 45.609C29.8065 44.9464 29.0064 44.2263 28.3347 43.4486L32.1081 39.3871C32.6077 39.992 33.1624 40.5393 33.7722 41.0289C34.4113 41.5186 35.1285 41.9075 35.9237 42.1955C36.7483 42.4836 37.6593 42.6276 38.6566 42.6276C39.7713 42.6276 40.7983 42.3972 41.7376 41.9363C42.7063 41.4754 43.5231 40.8129 44.188 39.9488C44.8585 39.0558 45.3128 37.99 45.5511 36.7514C45.9058 34.9079 45.6668 33.482 44.8341 32.4738C44.0307 31.4657 42.8077 30.9616 41.165 30.9616C40.2264 30.9616 39.3948 31.0912 38.6702 31.3504C37.9512 31.5809 37.0495 31.9985 35.9651 32.6035L33.3746 30.7455L37.2471 15.1908H54.6711L53.6404 20.5485H41.8044L39.8833 27.3321C40.584 27.0441 41.2563 26.828 41.9 26.684C42.5437 26.54 43.2322 26.468 43.9655 26.468C45.7842 26.468 47.3869 26.828 48.7737 27.5482C50.1661 28.2395 51.1728 29.3341 51.794 30.8319C52.4151 32.3298 52.5013 34.2453 52.0524 36.5786C51.598 38.9406 50.6646 40.9713 49.2523 42.6708C47.8749 44.3415 46.2349 45.6234 44.3325 46.5163C42.4649 47.3805 40.5338 47.8125 38.5391 47.8125Z" fill="white"/>
</g>
<defs>
<clipPath id="clip0_2053_38804">
<path d="M0 0H60V60H16C7.16344 60 0 52.8366 0 44V0Z" fill="white"/>
</clipPath>
</defs>
</svg>
