<svg width="60" height="60" viewBox="0 0 60 60" fill="none" xmlns="http://www.w3.org/2000/svg">
<g clip-path="url(#clip0_2053_38820)">
<path d="M0 0H60V60H16C7.16344 60 0 52.8366 0 44V0Z" fill="#0040FF"/>
<path d="M2.84634 47.2076L3.55291 43.535C7.01434 40.9425 9.99974 38.5373 12.5091 36.3193C15.0478 34.1013 17.0574 32.0418 18.5378 30.1406C20.0238 28.2107 20.9247 26.4248 21.2406 24.7829C21.4401 23.7459 21.424 22.8385 21.1923 22.0608C20.9606 21.2831 20.5169 20.6925 19.8611 20.2893C19.2403 19.8572 18.4018 19.6412 17.3458 19.6412C16.1725 19.6412 15.0234 19.9724 13.8986 20.6349C12.8087 21.2686 11.7672 22.032 10.7741 22.9249L7.82275 19.5115C9.65842 17.8985 11.4458 16.6886 13.185 15.8821C14.9591 15.0468 16.9461 14.6291 19.1461 14.6291C21.1994 14.6291 22.9084 15.0468 24.273 15.8821C25.6725 16.6886 26.6563 17.8264 27.2243 19.2955C27.7924 20.7646 27.8852 22.4929 27.5028 24.4804C27.1315 26.4104 26.2532 28.3835 24.868 30.3999C23.5176 32.3874 21.8299 34.375 19.8048 36.3625C17.7798 38.3501 15.5843 40.3088 13.2183 42.2388C14.0911 42.1235 15.0171 42.0371 15.9962 41.9795C17.0101 41.8931 17.8984 41.8499 18.6611 41.8499H25.7011L24.6703 47.2076H2.84634ZM39.3311 47.8125C37.1311 47.8125 35.3142 47.1932 33.8805 45.9546C32.4817 44.6872 31.5512 42.8149 31.0892 40.3376C30.662 37.8316 30.803 34.735 31.5124 31.048C32.2162 27.3897 33.2555 24.3508 34.6304 21.9312C36.0401 19.4827 37.6827 17.6536 39.5581 16.4438C41.4628 15.234 43.5152 14.6291 45.7152 14.6291C47.9445 14.6291 49.7614 15.2484 51.1658 16.487C52.5757 17.6968 53.5025 19.5115 53.9464 21.9312C54.4195 24.3508 54.3042 27.3897 53.6004 31.048C52.891 34.735 51.826 37.8316 50.4052 40.3376C49.0192 42.8149 47.383 44.6872 45.4965 45.9546C43.6156 47.1932 41.5604 47.8125 39.3311 47.8125ZM40.287 42.8437C41.255 42.8437 42.175 42.4836 43.0469 41.7635C43.9187 41.0433 44.7235 39.8335 45.4611 38.134C46.2043 36.4057 46.8641 34.0437 47.4404 31.048C48.0112 28.0811 48.252 25.7622 48.1627 24.0915C48.079 22.392 47.7342 21.211 47.1284 20.5485C46.528 19.8572 45.7439 19.5115 44.7759 19.5115C43.8665 19.5115 42.964 19.8572 42.0684 20.5485C41.2076 21.211 40.3937 22.392 39.6267 24.0915C38.8653 25.7622 38.1992 28.0811 37.6284 31.048C37.0521 34.0437 36.8176 36.4057 36.9251 38.134C37.0382 39.8335 37.3921 41.0433 37.9869 41.7635C38.611 42.4836 39.3777 42.8437 40.287 42.8437Z" fill="white"/>
</g>
<defs>
<clipPath id="clip0_2053_38820">
<path d="M0 0H60V60H16C7.16344 60 0 52.8366 0 44V0Z" fill="white"/>
</clipPath>
</defs>
</svg>
