<svg width="60" height="60" viewBox="0 0 60 60" fill="none" xmlns="http://www.w3.org/2000/svg">
<g clip-path="url(#clip0_2053_38806)">
<path d="M0 0H60V60H16C7.16344 60 0 52.8366 0 44V0Z" fill="#0040FF"/>
<path d="M4.56234 47.2076L5.55986 42.0227H12.5999L16.4819 21.8448H10.5419L11.3066 17.8697C13.0047 17.5816 14.4792 17.2359 15.7301 16.8327C17.0159 16.4006 18.2359 15.8533 19.39 15.1908H24.186L19.0239 42.0227H25.1399L24.1423 47.2076H4.56234ZM40.2551 47.8125C38.7298 47.8125 37.3094 47.4957 35.994 46.862C34.7079 46.2283 33.6469 45.2633 32.8109 43.9671C31.9805 42.642 31.4366 40.9713 31.1792 38.955C30.9566 36.9098 31.1169 34.4758 31.66 31.6529C32.2308 28.686 33.0614 26.1223 34.1517 23.9619C35.2713 21.8015 36.548 20.0444 37.9818 18.6906C39.4212 17.308 40.9526 16.2854 42.576 15.6229C44.2288 14.9603 45.8912 14.6291 47.5632 14.6291C49.5579 14.6291 51.2046 14.9891 52.5034 15.7093C53.8371 16.4006 54.8909 17.2503 55.6649 18.2585L51.5014 22.0608C51.066 21.4271 50.438 20.8798 49.6173 20.4189C48.7966 19.958 47.917 19.7276 46.9783 19.7276C45.6583 19.7276 44.3836 20.102 43.1542 20.851C41.9541 21.5999 40.8651 22.8385 39.8873 24.5668C38.9095 26.2951 38.1324 28.6572 37.556 31.6529C37.024 34.4182 36.8466 36.6362 37.0239 38.3069C37.236 39.9488 37.6953 41.1442 38.4019 41.8931C39.1085 42.642 39.9898 43.0165 41.0458 43.0165C41.8671 43.0165 42.642 42.8005 43.3705 42.3684C44.1338 41.9075 44.8039 41.245 45.3809 40.3808C45.9633 39.4879 46.3792 38.3933 46.6286 37.097C46.8725 35.8296 46.8666 34.7926 46.6111 33.9861C46.385 33.1796 45.9587 32.5746 45.3323 32.1714C44.7352 31.7681 43.9673 31.5665 43.0286 31.5665C42.1486 31.5665 41.172 31.8401 40.0987 32.3874C39.031 32.9059 37.9589 33.8277 36.8827 35.1527L37.3976 30.8751C38.1395 30.0686 38.9618 29.3773 39.8647 28.8012C40.7968 28.2251 41.716 27.793 42.622 27.505C43.5575 27.2169 44.3772 27.0729 45.0812 27.0729C46.8998 27.0729 48.4439 27.4329 49.7133 28.1531C51.0121 28.8732 51.9162 29.9678 52.4256 31.4368C52.935 32.9059 52.968 34.7926 52.5246 37.097C52.1035 39.2862 51.2684 41.1874 50.0194 42.8005C48.8052 44.3847 47.3349 45.6234 45.6085 46.5163C43.8875 47.3805 42.1031 47.8125 40.2551 47.8125Z" fill="white"/>
</g>
<defs>
<clipPath id="clip0_2053_38806">
<path d="M0 0H60V60H16C7.16344 60 0 52.8366 0 44V0Z" fill="white"/>
</clipPath>
</defs>
</svg>
